HIERARCHY
ROOT Root
{
  OFFSET 0.0 0.0 0.0
  CHANNELS 6 Xposition Yposition Zposition Zrotation Yrotation Xrotation
  JOINT Hips
  {
    OFFSET 0.0 100.0 0.0
    CHANNELS 6 Xposition Yposition Zposition Zrotation Yrotation Xrotation
    JOINT Spine1
    {
      OFFSET -0.013727 5.003763 -0.053727
      CHANNELS 3 Zrotation Yrotation Xrotation
      JOINT Spine2
      {
        OFFSET -0.0 7.125301 -0.029825
        CHANNELS 3 Zrotation Yrotation Xrotation
        JOINT Chest
        {
          OFFSET -1e-06 7.550063 -0.815971
          CHANNELS 3 Zrotation Yrotation Xrotation
          JOINT Neck1
          {
            OFFSET -0.181677 26.311295 -0.553348
            CHANNELS 3 Zrotation Yrotation Xrotation
            JOINT Neck2
            {
              OFFSET -3e-06 7.709397 2.302585
              CHANNELS 3 Zrotation Yrotation Xrotation
              JOINT Head
              {
                OFFSET -5e-06 6.128916 1.953709
                CHANNELS 3 Zrotation Yrotation Xrotation
                JOINT HeadEnd
                {
                  OFFSET 0.003598 16.065403 -1.835379
                  CHANNELS 3 Zrotation Yrotation Xrotation
                }
                JOINT Jaw
                {
                  OFFSET 0.002637 0.475592 3.094941
                  CHANNELS 3 Zrotation Yrotation Xrotation
                }
                JOINT LeftEye
                {
                  OFFSET 3.206381 5.380205 7.586883
                  CHANNELS 3 Zrotation Yrotation Xrotation
                }
                JOINT RightEye
                {
                  OFFSET -3.22244 5.361869 7.558234
                  CHANNELS 3 Zrotation Yrotation Xrotation
                }
              }
            }
          }
          JOINT LeftShoulder
          {
            OFFSET 1.621652 23.237164 5.113413
            CHANNELS 3 Zrotation Yrotation Xrotation
            JOINT LeftArm
            {
              OFFSET 14.919846 2e-06 -5.502326
              CHANNELS 3 Zrotation Yrotation Xrotation
              JOINT LeftForeArm
              {
                OFFSET 28.739307 0.0 -0.002588
                CHANNELS 3 Zrotation Yrotation Xrotation
                JOINT LeftHand
                {
                  OFFSET 27.093981 -1e-06 0.002609
                  CHANNELS 3 Zrotation Yrotation Xrotation
                  JOINT LeftHandThumb1
                  {
                    OFFSET 2.276482 -1.392045 3.191413
                    CHANNELS 3 Zrotation Yrotation Xrotation
                    JOINT LeftHandThumb2
                    {
                      OFFSET 4.012836 -1.828127 1.641654
                      CHANNELS 3 Zrotation Yrotation Xrotation
                      JOINT LeftHandThumb3
                      {
                        OFFSET 2.798515 0.0 -3e-06
                        CHANNELS 3 Zrotation Yrotation Xrotation
                        JOINT LeftHandThumbEnd
                        {
                          OFFSET 3.180793 -4e-06 4e-06
                          CHANNELS 3 Zrotation Yrotation Xrotation
                        }
                      }
                    }
                  }
                  JOINT LeftHandIndex1
                  {
                    OFFSET 3.247555 -0.531998 2.296169
                    CHANNELS 3 Zrotation Yrotation Xrotation
                    JOINT LeftHandIndex2
                    {
                      OFFSET 6.364578 0.01206 0.1786
                      CHANNELS 3 Zrotation Yrotation Xrotation
                      JOINT LeftHandIndex3
                      {
                        OFFSET 3.662364 0.0 0.0
                        CHANNELS 3 Zrotation Yrotation Xrotation
                        JOINT LeftHandIndex4
                        {
                          OFFSET 2.329242 4e-06 4e-06
                          CHANNELS 3 Zrotation Yrotation Xrotation
                          JOINT LeftHandIndexEnd
                          {
                            OFFSET 2.759615 -0.180537 -0.113024
                            CHANNELS 3 Zrotation Yrotation Xrotation
                          }
                        }
                      }
                    }
                  }
                  JOINT LeftHandMiddle1
                  {
                    OFFSET 3.163495 0.240981 1.000332
                    CHANNELS 3 Zrotation Yrotation Xrotation
                    JOINT LeftHandMiddle2
                    {
                      OFFSET 6.19078 -0.259278 -1.002548
                      CHANNELS 3 Zrotation Yrotation Xrotation
                      JOINT LeftHandMiddle3
                      {
                        OFFSET 4.35652 -4e-06 -1e-06
                        CHANNELS 3 Zrotation Yrotation Xrotation
                        JOINT LeftHandMiddle4
                        {
                          OFFSET 2.996877 -8e-06 0.0
                          CHANNELS 3 Zrotation Yrotation Xrotation
                          JOINT LeftHandMiddleEnd
                          {
                            OFFSET 2.304287 -0.294569 -0.031741
                            CHANNELS 3 Zrotation Yrotation Xrotation
                          }
                        }
                      }
                    }
                  }
                  JOINT LeftHandRing1
                  {
                    OFFSET 2.882643 -0.053652 -0.322543
                    CHANNELS 3 Zrotation Yrotation Xrotation
                    JOINT LeftHandRing2
                    {
                      OFFSET 5.854541 -0.486202 -1.373841
                      CHANNELS 3 Zrotation Yrotation Xrotation
                      JOINT LeftHandRing3
                      {
                        OFFSET 4.350578 0.0 3e-06
                        CHANNELS 3 Zrotation Yrotation Xrotation
                        JOINT LeftHandRing4
                        {
                          OFFSET 2.651321 7e-06 2e-06
                          CHANNELS 3 Zrotation Yrotation Xrotation
                          JOINT LeftHandRingEnd
                          {
                            OFFSET 1.936105 0.077687 -7.1e-05
                            CHANNELS 3 Zrotation Yrotation Xrotation
                          }
                        }
                      }
                    }
                  }
                  JOINT LeftHandPinky1
                  {
                    OFFSET 2.8655 -0.310005 -1.600378
                    CHANNELS 3 Zrotation Yrotation Xrotation
                    JOINT LeftHandPinky2
                    {
                      OFFSET 5.087849 -1.331141 -1.77123
                      CHANNELS 3 Zrotation Yrotation Xrotation
                      JOINT LeftHandPinky3
                      {
                        OFFSET 3.070974 4e-06 0.0
                        CHANNELS 3 Zrotation Yrotation Xrotation
                        JOINT LeftHandPinky4
                        {
                          OFFSET 1.549672 0.0 1e-06
                          CHANNELS 3 Zrotation Yrotation Xrotation
                          JOINT LeftHandPinkyEnd
                          {
                            OFFSET 1.944893 -0.157802 0.057219
                            CHANNELS 3 Zrotation Yrotation Xrotation
                          }
                        }
                      }
                    }
                  }
                }
              }
            }
          }
          JOINT RightShoulder
          {
            OFFSET -1.380118 23.180309 5.214158
            CHANNELS 3 Zrotation Yrotation Xrotation
            JOINT RightArm
            {
              OFFSET -15.037196 1.2e-05 -5.545604
              CHANNELS 3 Zrotation Yrotation Xrotation
              JOINT RightForeArm
              {
                OFFSET -28.736639 2e-06 -0.002597
                CHANNELS 3 Zrotation Yrotation Xrotation
                JOINT RightHand
                {
                  OFFSET -27.133619 -0.0 0.002613
                  CHANNELS 3 Zrotation Yrotation Xrotation
                  JOINT RightHandThumb1
                  {
                    OFFSET -2.274032 -1.383988 3.163127
                    CHANNELS 3 Zrotation Yrotation Xrotation
                    JOINT RightHandThumb2
                    {
                      OFFSET -4.011429 -1.827466 1.640914
                      CHANNELS 3 Zrotation Yrotation Xrotation
                      JOINT RightHandThumb3
                      {
                        OFFSET -2.794935 -4e-06 -3e-06
                        CHANNELS 3 Zrotation Yrotation Xrotation
                        JOINT RightHandThumbEnd
                        {
                          OFFSET -3.183852 4e-06 1e-06
                          CHANNELS 3 Zrotation Yrotation Xrotation
                        }
                      }
                    }
                  }
                  JOINT RightHandIndex1
                  {
                    OFFSET -3.253266 -0.520057 2.282866
                    CHANNELS 3 Zrotation Yrotation Xrotation
                    JOINT RightHandIndex2
                    {
                      OFFSET -6.341917 0.012471 0.178266
                      CHANNELS 3 Zrotation Yrotation Xrotation
                      JOINT RightHandIndex3
                      {
                        OFFSET -3.654871 -8e-06 -0.0
                        CHANNELS 3 Zrotation Yrotation Xrotation
                        JOINT RightHandIndex4
                        {
                          OFFSET -2.327586 0.0 1e-06
                          CHANNELS 3 Zrotation Yrotation Xrotation
                          JOINT RightHandIndexEnd
                          {
                            OFFSET -2.76179 -0.180656 -0.113078
                            CHANNELS 3 Zrotation Yrotation Xrotation
                          }
                        }
                      }
                    }
                  }
                  JOINT RightHandMiddle1
                  {
                    OFFSET -3.168106 0.246593 1.00103
                    CHANNELS 3 Zrotation Yrotation Xrotation
                    JOINT RightHandMiddle2
                    {
                      OFFSET -6.180828 -0.258836 -1.000895
                      CHANNELS 3 Zrotation Yrotation Xrotation
                      JOINT RightHandMiddle3
                      {
                        OFFSET -4.348901 0.0 -0.0
                        CHANNELS 3 Zrotation Yrotation Xrotation
                        JOINT RightHandMiddle4
                        {
                          OFFSET -3.00024 -4e-06 -2e-06
                          CHANNELS 3 Zrotation Yrotation Xrotation
                          JOINT RightHandMiddleEnd
                          {
                            OFFSET -2.30252 -0.29437 -0.031706
                            CHANNELS 3 Zrotation Yrotation Xrotation
                          }
                        }
                      }
                    }
                  }
                  JOINT RightHandRing1
                  {
                    OFFSET -2.88569 -0.067952 -0.308858
                    CHANNELS 3 Zrotation Yrotation Xrotation
                    JOINT RightHandRing2
                    {
                      OFFSET -5.854198 -0.48613 -1.373731
                      CHANNELS 3 Zrotation Yrotation Xrotation
                      JOINT RightHandRing3
                      {
                        OFFSET -4.33881 -4e-06 -0.0
                        CHANNELS 3 Zrotation Yrotation Xrotation
                        JOINT RightHandRing4
                        {
                          OFFSET -2.654903 -4e-06 4e-06
                          CHANNELS 3 Zrotation Yrotation Xrotation
                          JOINT RightHandRingEnd
                          {
                            OFFSET -1.933568 0.077527 -5.2e-05
                            CHANNELS 3 Zrotation Yrotation Xrotation
                          }
                        }
                      }
                    }
                  }
                  JOINT RightHandPinky1
                  {
                    OFFSET -2.866425 -0.342796 -1.584145
                    CHANNELS 3 Zrotation Yrotation Xrotation
                    JOINT RightHandPinky2
                    {
                      OFFSET -5.091371 -1.332055 -1.772385
                      CHANNELS 3 Zrotation Yrotation Xrotation
                      JOINT RightHandPinky3
                      {
                        OFFSET -3.062664 -4e-06 1e-06
                        CHANNELS 3 Zrotation Yrotation Xrotation
                        JOINT RightHandPinky4
                        {
                          OFFSET -1.546529 4e-06 -2e-06
                          CHANNELS 3 Zrotation Yrotation Xrotation
                          JOINT RightHandPinkyEnd
                          {
                            OFFSET -1.945119 -0.157718 0.057211
                            CHANNELS 3 Zrotation Yrotation Xrotation
                          }
                        }
                      }
                    }
                  }
                }
              }
            }
          }
        }
      }
    }
    JOINT LeftLeg
    {
      OFFSET 10.043214 -8.434526 2.595655
      CHANNELS 3 Zrotation Yrotation Xrotation
      JOINT LeftShin
      {
        OFFSET -1e-06 -43.221752 -0.802913
        CHANNELS 3 Zrotation Yrotation Xrotation
        JOINT LeftFoot
        {
          OFFSET 1e-06 -42.155094 -3.481523
          CHANNELS 3 Zrotation Yrotation Xrotation
          JOINT LeftToeBase
          {
            OFFSET 0.0 -5.059472 13.231529
            CHANNELS 3 Zrotation Yrotation Xrotation
            JOINT LeftToeEnd
            {
              OFFSET -0.009607 -1.647619 6.513017
              CHANNELS 3 Zrotation Yrotation Xrotation
            }
          }
        }
      }
    }
    JOINT RightLeg
    {
      OFFSET -10.047278 -8.29526 2.620317
      CHANNELS 3 Zrotation Yrotation Xrotation
      JOINT RightShin
      {
        OFFSET 1e-06 -43.362206 -0.805556
        CHANNELS 3 Zrotation Yrotation Xrotation
        JOINT RightFoot
        {
          OFFSET 2e-06 -42.117393 -3.478398
          CHANNELS 3 Zrotation Yrotation Xrotation
          JOINT RightToeBase
          {
            OFFSET -0.0 -5.079609 13.284196
            CHANNELS 3 Zrotation Yrotation Xrotation
            JOINT RightToeEnd
            {
              OFFSET 0.009532 -1.634378 6.460591
              CHANNELS 3 Zrotation Yrotation Xrotation
            }
          }
        }
      }
    }
  }
}
MOTION
Frames: 5
Frame Time: 0.03333333333333333
0.0 0.0 0.0 0.0 -0.0 0.0 4.21294 104.889381 162.693253 9.889549 12.386708 5.369122 0.223738 -1.368533 6.429101 -0.477327 -0.75296 1.982611 -4.901536 35.763367 71.641205 -1.375626 -2.004761 1.82986 -2.085672 -2.890784 -0.45401 -2.031896 -4.574335 -4.57377 7.6e-05 -2.3e-05 5e-06 0.310727 0.063997 0.129191 0.311116 -0.616167 -1.732767 0.325042 0.643399 -1.742712 -1.627281 0.965548 1.48337 33.068687 -0.785779 -24.181196 2.538843 8.079905 -0.096323 -8.074921 1.687249 -8.938997 -5.882109 9.861284 0.702589 -10.936877 -0.360575 7.156208 -0.0 8.774826 -1e-06 -3.242461 1.319229 0.819056 -1.844033 2.498507 -2.507278 -10.163602 4.678945 4.621112 -20.97603 -4e-06 3e-06 -21.226292 2.451697 -3.593999 -0.0 -6e-06 -1e-06 -1.362681 2.240799 -0.746324 -21.334923 0.584909 3.008326 -13.82122 -0.0 4e-06 -23.887178 -0.249078 -0.839483 -11.47275 0.911729 0.571815 -0.294026 1.679687 0.833256 -14.218213 0.093215 1.30058 -34.212063 -0.287562 0.967173 -20.033218 0.964537 1.212845 -0.0 1e-06 -0.0 -3.44039 0.788233 0.501656 -15.928194 -3.167309 2.99971 -6.33883 -0.0 3e-06 -18.123453 3.648183 -4.905669 -4e-06 0.0 -2e-06 -1.619394 5.901071 1.727333 -25.113741 52.961704 -11.627073 1.651482 4.53428 -0.180681 6.637125 11.710189 2.157348 2.243541 -5.255037 -3.180159 14.282894 -0.826594 6.952506 -2e-06 -12.690604 -1e-06 2.453567 -2.86945 0.406224 1.665666 -1.955921 -2.878299 4.7278 -4.170587 4.993926 11.020528 4e-06 0.0 12.109055 -3.735715 -2.866783 -1e-06 -0.0 1e-06 1.291985 -1.928549 -1.498091 14.800131 0.567468 3.865611 14.242571 -1.341735 -6.660658 19.631969 0.143925 -0.648243 6.01532 -1.135677 -0.573659 0.353028 -1.51115 -0.031939 20.222794 3.684311 2.316633 18.787273 4e-06 2e-06 10.751627 -0.479869 1.397907 -2e-06 -0.0 1e-06 3.273807 0.305947 -0.580112 21.486816 11.830376 2.266136 8.162929 1e-06 0.0 18.399086 -3.798986 -4.940572 3e-06 1e-06 -1e-06 70.995651 -2.178289 5.022804 6.138057 -28.837215 -18.898745 -14.979899 -16.437418 2.625325 -0.169525 -0.648799 -0.74438 -1e-06 -1e-06 2e-06 -30.174017 -14.100514 -22.786701 85.926903 -34.642586 24.755299 7.466218 1.204437 3.857463 -0.367863 0.211281 0.76476 0.0 0.0 -1e-06 
0.0 0.0 0.0 0.0 -0.0 0.0 4.68253 102.095642 165.057083 5.582872 7.831595 2.397001 0.664458 -0.931495 4.286991 -0.480822 -0.443798 1.294796 -3.387554 39.609726 73.383163 -0.560533 -1.423808 0.086392 -1.578516 -1.448814 -0.31382 -2.226641 -2.824096 -4.131907 7.7e-05 -2.2e-05 6e-06 0.233756 0.028137 0.127449 0.216228 -0.459266 -1.173764 0.251429 0.440652 -1.169266 -1.426779 0.747297 1.31888 34.53643 -2.17896 -25.061333 3.869429 8.792067 0.194988 -4.86543 0.535211 -6.090207 -5.882108 9.861286 0.70259 -10.936877 -0.360575 7.156209 -2e-06 8.774828 -2e-06 -3.382362 1.160355 0.385092 -1.844033 2.498506 -2.507279 -10.163603 4.678943 4.621108 -20.976028 -3e-06 4e-06 -21.22629 2.451697 -3.593998 1e-06 -6e-06 -1e-06 -1.362682 2.240797 -0.746324 -21.334917 0.584909 3.008323 -13.821218 -2e-06 2e-06 -23.887178 -0.249078 -0.839483 -8.459788 0.648779 0.255338 -0.294026 1.679687 0.833255 -14.218213 0.093213 1.300582 -34.212063 -0.287563 0.967174 -20.033222 0.964537 1.212846 -1e-06 0.0 2e-06 -3.440389 0.788233 0.501656 -15.928192 -3.16731 2.999709 -6.338829 -2e-06 2e-06 -18.123451 3.648182 -4.905669 -5e-06 1e-06 -3e-06 -1.228935 3.869367 1.371059 -26.930561 55.168701 -15.390002 0.792263 3.043154 -0.262747 4.505164 9.695262 2.046402 2.243543 -5.255036 -3.18016 14.282891 -0.826593 6.952503 -4e-06 -12.690601 2e-06 1.782297 -2.281646 0.26953 1.665666 -1.955921 -2.878301 4.727798 -4.170588 4.993925 11.020526 4e-06 -2e-06 12.109053 -3.735714 -2.866785 1e-06 -1e-06 -1e-06 1.291986 -1.92855 -1.49809 14.800127 0.567468 3.865607 14.242573 -1.341733 -6.66066 19.631971 0.143928 -0.648247 3.941036 -1.011041 -0.298805 0.353029 -1.51115 -0.03194 20.22279 3.68431 2.31663 18.78727 5e-06 -0.0 10.751629 -0.479868 1.397907 1e-06 0.0 0.0 3.273807 0.305948 -0.58011 21.486813 11.830376 2.266131 8.162926 1e-06 1e-06 18.399078 -3.798982 -4.940572 3e-06 -1e-06 -1e-06 76.015434 -13.457957 10.783549 6.969084 -29.874971 -19.533127 -12.362217 -11.627492 -0.617158 -0.178493 -0.697121 -2.922312 0.0 1e-06 1e-06 -28.316837 -11.662364 -15.995661 93.744339 -36.359261 22.677502 5.998505 0.837134 -0.700027 -0.276868 0.030044 0.886325 -0.0 -1e-06 -2e-06 
0.0 0.0 0.0 0.0 -0.0 0.0 4.718077 99.915474 167.257782 2.368924 3.589697 0.222392 0.889079 -0.378337 2.358286 -0.293288 -0.281407 0.641074 -1.473486 42.882759 75.520714 0.122251 -1.048456 -0.758092 -1.014771 -0.477645 -0.171656 -2.314506 -1.430878 -3.391075 7.5e-05 -2.2e-05 6e-06 0.107426 0.00474 0.10127 0.109744 -0.281356 -0.643832 0.099748 0.256808 -0.641652 -0.562206 0.691156 1.4566 34.847599 -4.260483 -25.348484 1.955261 6.764078 -0.082557 -2.976162 -1.352132 -3.254016 -5.882113 9.86129 0.702588 -10.936883 -0.360574 7.156215 -1e-06 8.774831 0.0 -2.38232 1.007341 -0.059612 -1.844034 2.498507 -2.507279 -10.163611 4.678948 4.621116 -20.976044 -2e-06 3e-06 -21.226307 2.451698 -3.594 0.0 -6e-06 -1e-06 -1.362683 2.240798 -0.746323 -21.334934 0.58491 3.008328 -13.821227 -3e-06 2e-06 -23.887196 -0.249079 -0.839481 -4.932897 0.270928 -0.01413 -0.294025 1.679688 0.833257 -14.218224 0.093215 1.300583 -34.21209 -0.28756 0.967172 -20.033232 0.964538 1.212846 -0.0 1e-06 0.0 -3.440392 0.788233 0.501657 -15.928203 -3.16731 2.99971 -6.338835 -0.0 1e-06 -18.123465 3.648185 -4.905674 -5e-06 2e-06 -2e-06 -1.3577 1.447147 0.867356 -25.819071 57.379662 -15.427449 0.566909 1.038751 -0.265223 1.034273 5.501838 1.67322 2.243542 -5.255037 -3.180158 14.282901 -0.826595 6.95251 -2e-06 -12.690607 2e-06 1.191121 -1.452904 0.219142 1.665666 -1.955921 -2.878302 4.727803 -4.17059 4.993926 11.020534 3e-06 1e-06 12.109058 -3.735716 -2.866783 -0.0 -0.0 -0.0 1.291986 -1.928551 -1.49809 14.800139 0.567468 3.865611 14.24258 -1.341735 -6.66066 19.631981 0.143924 -0.648241 2.226869 -0.770332 -0.065256 0.353029 -1.511151 -0.03194 20.222803 3.684309 2.316634 18.787287 3e-06 2e-06 10.751635 -0.479869 1.39791 0.0 -1e-06 -1e-06 3.273809 0.305948 -0.58011 21.486832 11.830376 2.266138 8.162935 1e-06 2e-06 18.399099 -3.798986 -4.940576 2e-06 -0.0 0.0 77.411758 -22.41223 15.367921 6.207398 -30.925423 -16.92329 -9.076242 -6.362754 -2.722159 -0.180666 -0.585862 -3.797558 1e-06 1e-06 2e-06 -26.212116 -8.287071 -10.101878 100.032585 -37.278896 21.263231 4.34619 0.483151 -3.54362 -0.176397 -0.104572 1.237083 -0.0 1e-06 -1e-06 
0.0 0.0 0.0 0.0 -0.0 0.0 4.481776 99.263382 168.58989 0.390616 -0.261678 -0.748054 0.645631 0.162287 0.717576 -0.068391 0.351395 0.132163 -0.145643 45.11541 77.687675 -0.599419 -0.587805 -0.712515 -0.367285 -0.171716 -0.037591 -1.784286 -0.384368 -1.858388 7.7e-05 -2.2e-05 6e-06 -0.038561 0.014891 0.049803 -0.046565 -0.079831 -0.185057 -0.021857 0.124827 -0.245493 -0.01667 0.656973 1.050822 34.092258 -7.415472 -25.769974 0.238577 5.374475 -0.237287 -1.295491 -1.649934 -0.941535 -5.882103 9.861284 0.70259 -10.936868 -0.360576 7.156205 1e-06 8.774824 0.0 -0.604862 0.722541 0.073005 -1.844033 2.498503 -2.507279 -10.163597 4.678944 4.621109 -20.976019 -7e-06 2e-06 -21.22628 2.451693 -3.593999 -0.0 -7e-06 -1e-06 -1.362681 2.240798 -0.746323 -21.334908 0.584907 3.008322 -13.821213 -3e-06 2e-06 -23.887167 -0.249083 -0.839482 -2.076183 -0.267805 0.144718 -0.294025 1.679688 0.833258 -14.218206 0.093213 1.300581 -34.212048 -0.287566 0.967172 -20.033209 0.964534 1.212845 -0.0 0.0 -0.0 -3.440388 0.788233 0.501656 -15.928183 -3.167311 2.999707 -6.338826 -0.0 0.0 -18.123444 3.648181 -4.905668 -5e-06 1e-06 -2e-06 -1.501213 0.223468 0.389103 -23.481054 58.374382 -14.076722 0.485751 -0.492141 -0.220079 -2.94262 0.772019 0.365213 2.243538 -5.255034 -3.180156 14.282883 -0.826593 6.952501 -3e-06 -12.6906 -1e-06 0.431935 -0.290659 0.207843 1.665665 -1.95592 -2.878297 4.727797 -4.170587 4.993922 11.020519 3e-06 2e-06 12.10904 -3.735713 -2.866779 -0.0 -1e-06 -1e-06 1.291984 -1.928548 -1.498087 14.80012 0.567469 3.865608 14.242561 -1.341736 -6.660651 19.631954 0.143928 -0.648238 0.492597 -0.125278 0.046013 0.353028 -1.511151 -0.031939 20.222778 3.684311 2.316633 18.787258 4e-06 5e-06 10.751622 -0.479869 1.397907 -0.0 1e-06 1e-06 3.273804 0.305946 -0.58011 21.486805 11.830376 2.26614 8.162922 2e-06 0.0 18.399071 -3.798983 -4.940569 3e-06 -0.0 -1e-06 76.228577 -27.384926 18.445169 4.014209 -32.09169 -11.475551 -5.181072 -2.195876 -1.922765 -0.124782 -0.244913 -2.219526 0.0 -0.0 2e-06 -23.753672 -4.686825 -5.890976 103.416 -36.894211 20.597193 1.864855 0.928333 -2.967312 -0.026777 -0.144215 0.165397 -0.0 -0.0 -1e-06 
0.0 0.0 0.0 0.0 -0.0 0.0 4.33491 100.0 171.320114 0.0 -0.0 0.0 0.0 -0.0 0.0 0.0 -0.0 0.0 -6.1e-05 45.89996 78.299873 0.0 -0.0 0.0 0.0 0.0 0.0 -0.0 0.0 0.0 7.7e-05 -2.2e-05 7e-06 0.0 -0.0 0.0 0.0 -0.0 0.0 0.0 -0.0 0.0 0.0 -0.0 0.0 28.802683 -10.551089 -20.602297 1.359553 1.248425 0.014994 0.0 -0.0 1e-06 -5.882107 9.861285 0.702589 -10.936873 -0.360576 7.156209 1e-06 8.774825 -1e-06 0.0 -0.0 -1e-06 -1.844033 2.498504 -2.507279 -10.163602 4.678946 4.621112 -20.976027 -4e-06 4e-06 -21.226292 2.451696 -3.594002 0.0 -5e-06 1e-06 -1.362682 2.240799 -0.746324 -21.334919 0.584908 3.008327 -13.821215 -2e-06 4e-06 -23.887178 -0.24908 -0.83948 0.0 0.0 0.0 -0.294024 1.679687 0.833255 -14.218211 0.093214 1.300583 -34.212055 -0.287565 0.967174 -20.033215 0.964538 1.212847 0.0 1e-06 0.0 -3.440389 0.788234 0.501656 -15.928189 -3.16731 2.999711 -6.338827 -1e-06 2e-06 -18.123453 3.648181 -4.905671 -6e-06 0.0 -3e-06 0.0 -0.0 0.0 -18.723444 56.193546 -9.541156 -0.33556 1.629099 -0.036171 0.0 0.0 1e-06 2.24354 -5.255035 -3.180157 14.282892 -0.826596 6.952505 -2e-06 -12.690603 -1e-06 -0.0 0.0 -1e-06 1.665667 -1.955921 -2.878298 4.727798 -4.170587 4.993924 11.020526 3e-06 -0.0 12.109052 -3.735715 -2.866783 0.0 -0.0 -1e-06 1.291986 -1.92855 -1.498089 14.800131 0.56747 3.865609 14.242568 -1.341734 -6.660654 19.631968 0.143922 -0.648243 -1e-06 -1e-06 -0.0 0.353029 -1.51115 -0.03194 20.22279 3.684311 2.316633 18.787273 5e-06 2e-06 10.751629 -0.479868 1.397907 -0.0 -1e-06 2e-06 3.273807 0.305947 -0.580109 21.486816 11.830374 2.266134 8.162928 2e-06 -0.0 18.399086 -3.798986 -4.940574 3e-06 0.0 -0.0 76.319939 -26.340609 14.222979 0.109801 -33.754066 -2.825401 -0.0 -0.0 -0.0 0.0 1e-06 -0.0 -0.0 -0.0 2e-06 -21.210516 -1.693347 -4.131108 102.514374 -34.829235 20.626646 0.0 0.0 -0.0 0.0 0.0 -0.0 0.0 1e-06 -1e-06 
